# xmcd
#
# Track frame offsets: 
#        150
#        11485
#        23718
#        35734
#        52157
#        65892
#        78525
#        92100
#        106707
#        119232
#        129632
#        145936
#        156065
#        172891
#
# Disc length: 2582 seconds
#
# Revision: 0
# Processed by: cddbd v1.5.2PL0 Copyright (c) Steve Scherf et al.
# Submitted via: ExactAudioCopy v0.95b4
#
DISCID=c30a140e
DTITLE=Steve Phillips - The Best Of
DYEAR=1986
DGENRE=Blues
TTITLE0=Dallas Rag
TTITLE1=Panic Is On
TTITLE2=Gonna Lay Down My Old Guitar
TTITLE3=Cool Drink Of Water
TTITLE4=Baton Rouge Rag
TTITLE5=Crow Jane
TTITLE6=Mean Mistreatin' Mama
TTITLE7=Tattler
TTITLE8=West Coast Blues
TTITLE9=Wayfarer Through This World
TTITLE10=I Couldn't Stay There
TTITLE11=Crazy 'bout You
TTITLE12=Broke Down Engine
TTITLE13=Boogie Woogie Dance
EXTD=
EXTT0=
EXTT1=
EXTT2=
EXTT3=
EXTT4=
EXTT5=
EXTT6=
EXTT7=
EXTT8=
EXTT9=
EXTT10=
EXTT11=
EXTT12=
EXTT13=
PLAYORDER=
